<svg width="133" height="139" viewBox="0 0 133 139" fill="none" xmlns="http://www.w3.org/2000/svg">
<path d="M4.36401 17.6677C3.89499 5.1827 16.6023 -3.52654 28.0769 1.41577L97.8855 31.4871C104.63 27.4637 113.43 29.3291 117.931 35.8972L107.375 43.1306C107.465 43.4924 107.619 43.8468 107.844 44.1746L118.443 59.6404C118.668 59.9679 118.942 60.2387 119.247 60.4529L129.802 53.2195C134.486 60.053 132.742 69.3888 125.909 74.072L35.9968 135.691C29.1634 140.374 19.8274 138.631 15.1443 131.798L26.5242 123.998C26.4344 123.636 26.2808 123.282 26.0564 122.955L15.4568 107.489C15.2324 107.162 14.9587 106.89 14.6541 106.676L3.27319 114.475C-1.40998 107.642 0.333225 98.305 7.16675 93.6218L7.21753 93.5867L4.36401 17.6677ZM37.7683 122.354C37.1439 121.443 35.8992 121.211 34.988 121.836L29.2136 125.793C28.3025 126.417 28.0697 127.662 28.6941 128.573L30.9558 131.873C31.5803 132.784 32.8251 133.016 33.7361 132.391L39.5105 128.434C40.4214 127.81 40.6534 126.565 40.0291 125.654L37.7683 122.354ZM51.7908 112.744C51.1663 111.833 49.9215 111.601 49.0105 112.225L43.2361 116.182C42.3251 116.807 42.0932 118.052 42.7175 118.963L44.9783 122.262C45.6027 123.173 46.8475 123.405 47.7585 122.781L53.533 118.824C54.444 118.2 54.6768 116.955 54.0525 116.044L51.7908 112.744ZM18.2878 104.184C18.3776 104.546 18.532 104.9 18.7566 105.227L29.3562 120.694C29.5805 121.021 29.8545 121.293 30.1589 121.507L56.2205 103.646C56.1307 103.285 55.9769 102.932 55.7527 102.604L45.1531 87.1375C44.9285 86.8097 44.6532 86.5392 44.3484 86.325L18.2878 104.184ZM65.8142 103.134C65.1898 102.223 63.945 101.991 63.0339 102.615L57.2595 106.572C56.3484 107.196 56.1157 108.441 56.74 109.352L59.0017 112.652C59.6262 113.563 60.8709 113.795 61.782 113.171L67.5564 109.214C68.4672 108.589 68.6993 107.344 68.075 106.433L65.8142 103.134ZM79.8367 93.5242C79.2122 92.613 77.9675 92.3802 77.0564 93.0046L71.282 96.9617C70.371 97.5861 70.139 98.8309 70.7634 99.7419L73.0242 103.042C73.6486 103.953 74.8933 104.185 75.8044 103.56L81.5789 99.6033C82.4899 98.9788 82.7228 97.7341 82.0984 96.823L79.8367 93.5242ZM8.90894 99.7019L11.1697 103.002C11.794 103.913 13.0389 104.145 13.95 103.521L19.7244 99.5632C20.6353 98.9387 20.8673 97.694 20.2429 96.783L17.9822 93.4841L8.90894 99.7019ZM47.9832 83.8337C48.073 84.1952 48.2274 84.5491 48.4519 84.8767L59.0515 100.343C59.2759 100.67 59.5507 100.941 59.8552 101.155L85.9158 83.2957C85.826 82.9342 85.6725 82.5802 85.448 82.2527L74.8484 66.7869C74.6237 66.4591 74.3496 66.1867 74.0447 65.9724L47.9832 83.8337ZM93.8601 83.9138C93.2358 83.0028 91.9909 82.7702 91.0798 83.3943L85.3054 87.3513C84.3944 87.9757 84.1617 89.2205 84.7859 90.1316L87.0476 93.4314C87.6721 94.3424 88.9168 94.5753 89.8279 93.9509L95.6023 89.9929C96.513 89.3684 96.7452 88.1236 96.1208 87.2126L93.8601 83.9138ZM22.9314 90.0925L25.1931 93.3914C25.8176 94.3023 27.0623 94.5353 27.9734 93.9109L33.7468 89.9529C34.658 89.3285 34.8908 88.0837 34.2664 87.1726L32.0046 83.8738L22.9314 90.0925ZM107.883 74.3035C107.258 73.3924 106.013 73.1596 105.102 73.7839L99.3279 77.741C98.4168 78.3654 98.185 79.6101 98.8093 80.5212L101.07 83.821C101.694 84.7321 102.939 84.9647 103.85 84.3406L109.625 80.3835C110.536 79.7591 110.769 78.5134 110.144 77.6023L107.883 74.3035ZM36.9539 80.4822L39.2156 83.781C39.84 84.6921 41.0847 84.9248 41.9958 84.3005L47.7703 80.3435C48.6814 79.7191 48.9132 78.4734 48.2888 77.5623L46.0281 74.2634L36.9539 80.4822ZM77.6794 63.4822C77.7692 63.8437 77.9236 64.1975 78.1482 64.5251L88.7478 79.9919C88.9721 80.3192 89.2461 80.5904 89.5505 80.8044L115.611 62.9441C115.521 62.5829 115.368 62.2295 115.143 61.9021L104.544 46.4353C104.319 46.1076 104.045 45.836 103.74 45.6218L77.6794 63.4822ZM121.906 64.6931C121.282 63.7821 120.037 63.5495 119.126 64.1736L113.351 68.1306C112.44 68.7549 112.208 69.9998 112.832 70.9109L115.094 74.2107C115.718 75.1218 116.963 75.3546 117.874 74.7302L123.648 70.7732C124.559 70.1488 124.791 68.904 124.167 67.9929L121.906 64.6931ZM50.9773 70.8718L53.239 74.1707C53.8635 75.0817 55.1082 75.3146 56.0193 74.6902L61.7927 70.7332C62.7038 70.1088 62.9364 68.864 62.3123 67.9529L60.0505 64.6531L50.9773 70.8718ZM64.9998 61.2615L67.2615 64.5603C67.8859 65.4714 69.1306 65.7042 70.0417 65.0798L75.8162 61.1228C76.7273 60.4984 76.9591 59.2537 76.3347 58.3425L74.074 55.0427L64.9998 61.2615ZM35.1062 27.8708C32.3471 26.1287 28.7499 28.1116 28.7498 31.3748V53.281C28.7498 56.5443 32.347 58.5273 35.1062 56.7849L52.4519 45.8318C55.0267 44.2057 55.0265 40.4511 52.4519 38.825L35.1062 27.8708ZM79.0232 51.6511L81.2839 54.95C81.9084 55.8611 83.154 56.0939 84.0652 55.4695L89.8386 51.5125C90.7497 50.8881 90.9824 49.6433 90.3582 48.7322L88.0964 45.4324L79.0232 51.6511ZM93.0457 42.0408L95.3074 45.3406C95.9319 46.2514 97.1766 46.4835 98.0876 45.8591L103.862 41.9021C104.773 41.2777 105.005 40.0329 104.381 39.1218L102.12 35.822L93.0457 42.0408Z" fill="#2B7FFF"/>
</svg>
